{"accessors":{"accessor_0":{"bufferView":"bufferView_0","byteOffset":0,"byteStride":0,"componentType":5126,"count":5700,"min":[-1.0286049842834473,0.010453999973833561,-4.5243377685546875],"max":[0.8749309778213501,11.213408470153809,3.2296109199523926],"type":"VEC3"},"accessor_1":{"bufferView":"bufferView_0","byteOffset":68400,"byteStride":0,"componentType":5126,"count":5700,"min":[-0.9999610185623169,-1,-0.9999610185623169],"max":[0.9999610185623169,0.9999979734420776,0.9999610185623169],"type":"VEC3"},"accessor_2":{"bufferView":"bufferView_0","byteOffset":136800,"byteStride":0,"componentType":5126,"count":5700,"min":[0,0],"max":[1,1],"type":"VEC2"},"accessor_3":{"bufferView":"bufferView_1","byteOffset":0,"byteStride":0,"componentType":5123,"count":5700,"min":[0],"max":[5699],"type":"SCALAR"}},"asset":{"generator":"obj2gltf","profile":{"api":"WebGL","version":"1.0"},"version":"1.0","premultipliedAlpha":true},"buffers":{"buffer":{"byteLength":193800,"uri":"data:application/octet-stream;base64,","type":"arraybuffer"}},"bufferViews":{"bufferView_0":{"buffer":"buffer","byteLength":182400,"byteOffset":0,"target":34962},"bufferView_1":{"buffer":"buffer","byteLength":11400,"byteOffset":182400,"target":34963}},"extensionsUsed":[],"images":{},"materials":{"lambert3SG":{"technique":"technique0","values":{"ambient":[0,0,0,1],"diffuse":[1,0.5,0.5,1],"emission":[0,0,0,1],"specular":[0,0,0,1],"shininess":0,"transparency":1}}},"meshes":{"nslogo2:Mesh group_1":{"name":"nslogo2:Mesh group_1","primitives":[{"attributes":{"POSITION":"accessor_0","NORMAL":"accessor_1","TEXCOORD_0":"accessor_2"},"indices":"accessor_3","material":"lambert3SG","mode":4}]}},"nodes":{"nslogo2:Mesh group":{"name":"nslogo2:Mesh group","meshes":["nslogo2:Mesh group_1"],"children":[],"matrix":[1,0,0,0,0,1,0,0,0,0,1,0,0,0,0,1]}},"samplers":{},"scene":"scene","scenes":{"scene":{"nodes":["nslogo2:Mesh group"]}},"textures":{},"animations":{},"cameras":{},"programs":{"program0":{"attributes":["a_position","a_normal","a_texcoord_0"],"fragmentShader":"fragmentShader0","vertexShader":"vertexShader0"}},"shaders":{"vertexShader0":{"type":35633,"uri":"data:text/plain;base64,"},"fragmentShader0":{"type":35632,"uri":"data:text/plain;base64,"}},"skins":{},"techniques":{"technique0":{"attributes":{"a_position":"position","a_normal":"normal","a_texcoord_0":"texcoord_0"},"parameters":{"modelViewMatrix":{"semantic":"MODELVIEW","type":35676},"projectionMatrix":{"semantic":"PROJECTION","type":35676},"normalMatrix":{"semantic":"MODELVIEWINVERSETRANSPOSE","type":35675},"ambient":{"type":35666},"diffuse":{"type":35666},"emission":{"type":35666},"specular":{"type":35666},"shininess":{"type":5126},"transparency":{"type":5126},"position":{"semantic":"POSITION","type":35665},"normal":{"semantic":"NORMAL","type":35665},"texcoord_0":{"semantic":"TEXCOORD_0","type":5126}},"program":"program0","states":{"enable":[2884,2929]},"uniforms":{"u_modelViewMatrix":"modelViewMatrix","u_projectionMatrix":"projectionMatrix","u_normalMatrix":"normalMatrix","u_ambient":"ambient","u_diffuse":"diffuse","u_emission":"emission","u_specular":"specular","u_shininess":"shininess","u_transparency":"transparency"}}}}
