{"accessors":[{"name":"nslogo2:Mesh group_1_positions","componentType":5126,"count":5700,"min":[-1.0433419942855835,0.003343000076711178,-0.37178900837898254],"max":[1.4597009420394897,3.586271047592163,0.34891998767852783],"type":"VEC3","bufferView":0,"byteOffset":0},{"name":"nslogo2:Mesh group_1_normals","componentType":5126,"count":5700,"min":[-0.9985190033912659,-1,-0.9985190033912659],"max":[0.9985190033912659,0.9999979734420776,0.9985190033912659],"type":"VEC3","bufferView":0,"byteOffset":68400},{"name":"nslogo2:Mesh group_1_texcoords","componentType":5126,"count":5700,"min":[0,0],"max":[1,1],"type":"VEC2","bufferView":1,"byteOffset":0},{"name":"nslogo2:Mesh group_1_0_indices","componentType":5123,"count":5700,"min":[0],"max":[5699],"type":"SCALAR","bufferView":2,"byteOffset":0}],"asset":{"generator":"obj2gltf","version":"2.0"},"buffers":[{"name":"NSLogo73","byteLength":193800,"uri":"data:application/octet-stream;base64,"}],"bufferViews":[{"name":"bufferView_0","buffer":0,"byteLength":136800,"byteOffset":0,"byteStride":12,"target":34962},{"name":"bufferView_1","buffer":0,"byteLength":45600,"byteOffset":136800,"byteStride":8,"target":34962},{"name":"bufferView_2","buffer":0,"byteLength":11400,"byteOffset":182400,"target":34963}],"materials":[{"name":"lambert3SG","pbrMetallicRoughness":{"baseColorFactor":[1,0.5,0.5,1],"metallicFactor":0,"roughnessFactor":1},"emissiveFactor":[0,0,0],"alphaMode":"OPAQUE","doubleSided":false}],"meshes":[{"name":"nslogo2:Mesh group_1","primitives":[{"attributes":{"POSITION":0,"NORMAL":1,"TEXCOORD_0":2},"indices":3,"material":0,"mode":4}]}],"nodes":[{"name":"nslogo2:Mesh group","mesh":0}],"scene":0,"scenes":[{"nodes":[0]}]}
